<svg width="1600" height="900" viewBox="0 0 1600 900" fill="none" xmlns="http://www.w3.org/2000/svg" role="img" aria-labelledby="title desc">
  <title id="title">Northstar Studio House logo</title>
  <desc id="desc">A premium black and ivory logo for Northstar Studio House with an eight-point north star inside a subtle house-shaped frame.</desc>
  <rect width="1600" height="900" fill="#0A0B0A"/>
  <defs>
    <linearGradient id="starGlow" x1="0" y1="0" x2="1" y2="1">
      <stop offset="0" stop-color="#F4F2EA"/>
      <stop offset="0.52" stop-color="#D9FF62"/>
      <stop offset="1" stop-color="#8FA63E"/>
    </linearGradient>
    <filter id="softGlow" x="-80%" y="-80%" width="260%" height="260%" color-interpolation-filters="sRGB">
      <feGaussianBlur stdDeviation="16" result="blur"/>
      <feColorMatrix in="blur" type="matrix" values="0 0 0 0 0.85 0 0 0 0 1 0 0 0 0 0.38 0 0 0 0.55 0"/>
      <feBlend in="SourceGraphic" mode="screen"/>
    </filter>
  </defs>

  <!-- Main brand lockup -->
  <g transform="translate(250 167)">
    <!-- mark container -->
    <g transform="translate(0 0)">
      <path d="M150 38L278 132V326H22V132L150 38Z" stroke="#F4F2EA" stroke-width="13" stroke-linejoin="round"/>
      <path d="M150 38L278 132V326H22V132L150 38Z" stroke="#D9FF62" stroke-width="2" stroke-linejoin="round" opacity="0.8"/>
      <path d="M150 92L174 201L260 225L174 249L150 358L126 249L40 225L126 201L150 92Z" fill="url(#starGlow)" filter="url(#softGlow)"/>
      <circle cx="150" cy="225" r="19" fill="#0A0B0A" stroke="#F4F2EA" stroke-width="7"/>
      <path d="M91 301H209" stroke="#F4F2EA" stroke-width="13" stroke-linecap="square"/>
    </g>

    <!-- wordmark -->
    <g transform="translate(372 65)">
      <text x="0" y="92" fill="#F4F2EA" font-family="Manrope, Avenir Next, Helvetica, Arial, sans-serif" font-size="94" font-weight="800" letter-spacing="-4">NORTHSTAR</text>
      <text x="4" y="172" fill="#D9FF62" font-family="DM Mono, SFMono-Regular, Menlo, Monaco, monospace" font-size="28" font-weight="500" letter-spacing="10">STUDIO HOUSE</text>
      <path d="M4 215H675" stroke="#30342D" stroke-width="2"/>
      <text x="4" y="269" fill="#A8ADA3" font-family="Manrope, Avenir Next, Helvetica, Arial, sans-serif" font-size="27" font-weight="500" letter-spacing="-.4">The AI management house for short-form creators.</text>
    </g>
  </g>

  <!-- Alternate compact lockups -->
  <g transform="translate(250 650)">
    <rect x="0" y="0" width="310" height="96" rx="0" fill="#111310" stroke="#2B2F28"/>
    <path d="M55 21L91 48V82H19V48L55 21Z" stroke="#F4F2EA" stroke-width="5" stroke-linejoin="round"/>
    <path d="M55 34L63 58L86 66L63 73L55 96L47 73L24 66L47 58L55 34Z" fill="#D9FF62"/>
    <text x="117" y="42" fill="#F4F2EA" font-family="Manrope, Avenir Next, Helvetica, Arial, sans-serif" font-size="25" font-weight="800" letter-spacing="-.8">NORTHSTAR</text>
    <text x="119" y="68" fill="#D9FF62" font-family="DM Mono, SFMono-Regular, Menlo, Monaco, monospace" font-size="10" font-weight="500" letter-spacing="3.2">STUDIO HOUSE</text>
  </g>

  <g transform="translate(610 650)">
    <rect x="0" y="0" width="96" height="96" fill="#D9FF62"/>
    <path d="M48 15L80 39V82H16V39L48 15Z" stroke="#0A0B0A" stroke-width="6" stroke-linejoin="round"/>
    <path d="M48 28L55 52L78 59L55 66L48 90L41 66L18 59L41 52L48 28Z" fill="#0A0B0A"/>
  </g>

  <g transform="translate(758 650)">
    <text x="0" y="42" fill="#F4F2EA" font-family="Manrope, Avenir Next, Helvetica, Arial, sans-serif" font-size="34" font-weight="800" letter-spacing="-1.4">NORTHSTAR</text>
    <text x="2" y="73" fill="#D9FF62" font-family="DM Mono, SFMono-Regular, Menlo, Monaco, monospace" font-size="12" font-weight="500" letter-spacing="4">STUDIO HOUSE</text>
  </g>
</svg>
